<?xml version="1.0"?>
<svg version="1.1" xmlns="http://www.w3.org/2000/svg" width="69" height="54" style=""><path fill="#" d="M38.05078125,33.712890625l0.02734375,0.02734375l-0.02734375-0.02734375l0.02734375,0.0546875q0,0.095703125-0.259765625,0.2734375q-0.13671875,0.095703125-0.13671875,0.177734375l0,0.13671875l0,0.08203125q0,0.396484375-0.13671875,0.669921875q-0.02734375,0.02734375-0.02734375,0.13671875l0,0.177734375q0,0.08203125-0.02734375,0.109375q-0.068359375,0.068359375-0.068359375,0.13671875l0,0.109375l0,0.02734375q0,0.02734375,0.013671875,0.0888671875t0.013671875,0.0888671875q0,0.314453125-0.1640625,0.888671875q-0.013671875,0.068359375-0.0546875,0.287109375t-0.1025390625,0.3623046875t-0.1708984375,0.2255859375q-0.19140625,0.369140625-0.341796875,0.46484375q0,0.095703125-0.109375,0.423828125q-0.013671875,0.08203125-0.095703125,0.24609375t-0.095703125,0.259765625q0,0.095703125-0.1025390625,0.19140625t-0.1298828125,0.150390625q-0.02734375,0.095703125-0.13671875,0.21875t-0.13671875,0.1640625q-0.095703125,0.232421875-0.341796875,0.423828125q-0.02734375,0.02734375-0.123046875,0.232421875t-0.24609375,0.2734375q-0.02734375,0.02734375-0.3828125,0.1640625q-0.109375,0.068359375-0.109375,0.13671875q0,0.013671875,0.013671875,0.068359375t0.013671875,0.08203125q0,0.0546875-0.02734375,0.109375q-0.0546875,0.13671875-0.2666015625,0.30078125t-0.2666015625,0.259765625q-0.068359375,0.123046875-0.2255859375,0.3486328125t-0.1982421875,0.2939453125q-0.546875,0.751953125-1.12109375,0.751953125q-0.08203125,0-0.24609375-0.0546875q-0.341796875-0.08203125-0.642578125-0.451171875q-0.08203125,0.0546875-0.2119140625,0.1640625t-0.1572265625,0.123046875q-0.13671875,0.328125-0.423828125,0.328125q-0.13671875,0-0.2734375-0.13671875q-0.08203125-0.08203125-0.150390625-0.08203125q-0.041015625,0-0.0751953125,0.0341796875t-0.0888671875,0.1025390625t-0.109375,0.109375q-0.205078125,0.150390625-0.341796875,0.150390625q-0.109375,0-0.1640625-0.02734375q-0.24609375,0.08203125-0.30078125,0.08203125q-0.19140625,0-0.259765625-0.13671875l-0.08203125,0q-0.041015625,0-0.123046875,0.02734375t-0.123046875,0.02734375q-0.02734375,0-0.068359375-0.013671875t-0.0546875-0.013671875q-0.02734375,0-0.1025390625,0.013671875t-0.1162109375,0.013671875t-0.109375-0.013671875t-0.109375-0.013671875q-0.150390625-0.02734375-0.5126953125,0.068359375t-0.4990234375,0.095703125q-0.109375,0-0.1640625-0.02734375t-0.177734375-0.02734375q-0.068359375,0-0.2119140625,0.02734375t-0.2255859375,0.02734375q-0.068359375,0-0.232421875-0.0546875q-0.109375,0.0546875-0.24609375,0.0546875q-0.0546875,0-0.150390625-0.013671875t-0.13671875-0.013671875q-0.068359375,0-0.205078125-0.013671875t-0.205078125-0.013671875q-0.0546875,0-0.21875-0.0546875t-0.232421875-0.0546875q-0.109375-0.02734375-0.341796875-0.02734375l-0.109375,0q-0.095703125,0-0.30078125,0.02734375t-0.314453125,0.02734375q-0.041015625,0-0.109375-0.013671875t-0.109375-0.013671875l-0.205078125,0l-0.3828125,0q-0.02734375,0.02734375-0.123046875,0.02734375q-0.08203125,0-0.13671875-0.0546875l-0.24609375,0.08203125q-0.041015625,0-0.095703125-0.02734375t-0.08203125-0.02734375l-0.02734375,0q-0.2734375,0.13671875-0.3828125,0.13671875q-0.041015625,0-0.150390625,0.013671875t-0.1640625,0.013671875q-0.08203125,0-0.19140625-0.0546875q-0.109375,0.0546875-0.1640625,0.0546875t-0.1640625-0.02734375t-0.150390625-0.02734375q-0.013671875,0-0.041015625,0.013671875t-0.041015625,0.013671875q-0.0546875,0-0.13671875-0.0205078125t-0.1640625-0.0478515625l-0.123046875-0.041015625l-0.109375,0l-0.287109375,0q-0.2734375,0-0.35546875-0.0546875q-0.205078125,0.08203125-0.451171875,0.08203125q-0.2734375,0-0.478515625-0.08203125l-0.08203125,0q-0.0546875,0-0.1845703125-0.0205078125t-0.1845703125-0.0205078125q-0.08203125,0-0.1640625,0.041015625q-0.13671875,0.13671875-0.30078125,0.13671875l-0.0546875,0q-0.041015625-0.013671875-0.08203125-0.041015625l-0.068359375-0.013671875q-0.02734375,0-0.08203125,0.0341796875t-0.109375,0.0478515625q-0.013671875,0-0.0478515625,0.013671875t-0.0615234375,0.013671875q-0.041015625,0-0.1640625-0.0341796875t-0.177734375-0.0478515625l-0.08203125,0l-0.24609375,0q-0.314453125,0-0.423828125-0.150390625q-0.1640625-0.068359375-0.1640625-0.51953125q0-0.35546875,0.08203125-0.765625q-0.0546875-0.328125-0.0546875-0.642578125l0-0.13671875q-0.0546875-0.1640625-0.0546875-0.369140625q0-0.560546875,0.35546875-0.560546875l0.232421875,0q0.21875,0,0.328125,0.0546875q0.013671875,0,0.041015625,0.013671875t0.041015625,0.013671875q0.068359375,0,0.341796875-0.13671875q0.0546875-0.02734375,0.1640625-0.02734375q0.0546875,0,0.1708984375,0.013671875t0.1708984375,0.013671875q0.109375,0,0.1640625-0.02734375q0.41015625-0.08203125,0.423828125-0.08203125q0.13671875,0,0.19140625,0.0546875q0.13671875,0.02734375,0.2255859375-0.123046875t0.150390625-0.4033203125t0.0751953125-0.2802734375q-0.109375,0.0546875-0.232421875,0.0546875q-0.1640625,0-0.1640625-0.13671875l0-0.02734375q0.02734375-0.13671875,0.369140625-0.396484375q-0.02734375-0.0546875-0.02734375-0.19140625l0-0.068359375q0-0.013671875-0.013671875-0.0546875t-0.013671875-0.0546875q0-0.041015625,0.013671875-0.123046875t0.013671875-0.123046875q0-0.068359375-0.08203125-0.109375q-0.123046875-0.041015625-0.123046875-0.123046875q0-0.041015625,0.123046875-0.150390625t0.13671875-0.123046875q0.08203125-0.328125,0.08203125-0.697265625q0-0.232421875-0.041015625-0.724609375t-0.041015625-0.73828125q0-0.314453125,0.02734375-0.478515625l-0.13671875,0.068359375q-0.150390625,0-0.150390625-0.150390625q0-0.0546875,0.0478515625-0.1162109375t0.13671875-0.1298828125t0.1025390625-0.08203125q-0.08203125-0.4921875-0.08203125-0.533203125l0-0.08203125q-0.109375-0.21875-0.109375-0.505859375q0-0.150390625,0.0546875-0.314453125q0.02734375-0.08203125,0.02734375-0.2734375l0-0.341796875q0-0.21875,0.02734375-0.30078125q-0.02734375-0.13671875-0.02734375-0.451171875l0-0.451171875q-0.02734375-0.1640625-0.02734375-0.505859375l0-0.505859375q0-0.041015625-0.013671875-0.150390625t-0.013671875-0.177734375q0-0.4921875,0.08203125-0.615234375q-0.0546875-0.1640625-0.0546875-0.615234375l0-0.177734375q0-0.109375,0.013671875-0.3486328125t0.013671875-0.3486328125q-0.013671875-0.08203125-0.0751953125-0.2666015625t-0.0751953125-0.2666015625q-0.041015625-0.0546875-0.0615234375-0.150390625t-0.0615234375-0.123046875t-0.150390625-0.02734375q-0.30078125,0-0.423828125-0.08203125q-0.1640625,0.0546875-0.30078125,0.0546875q-0.1640625,0-0.205078125-0.109375q-0.068359375-0.068359375-0.30078125-0.068359375q-0.109375,0-0.287109375,0.0205078125t-0.19140625,0.0205078125t-0.24609375-0.0068359375t-0.369140625-0.0546875t-0.19140625-0.1708984375q-0.08203125-0.0546875-0.08203125-0.478515625q0-0.546875,0.08203125-1.12109375q-0.19140625,0.095703125-0.314453125,0.095703125q-0.109375,0-0.109375-0.068359375t0.109375-0.21875q0.02734375-0.041015625,0.1162109375-0.123046875t0.13671875-0.1572265625t0.0615234375-0.1435546875q-0.02734375-0.08203125-0.02734375-0.2734375q0-0.13671875,0.02734375-0.19140625q0.095703125-0.232421875,0.4375-0.232421875q0.123046875,0,0.150390625,0.02734375l0.08203125,0q0.19140625,0,0.30078125,0.0546875q0.109375-0.0546875,0.232421875-0.0546875q0.08203125,0,0.13671875,0.02734375l0.109375,0l0.232421875,0q0.0546875,0,0.21875-0.013671875t0.21875-0.013671875l0.177734375,0q0.328125,0,0.4921875,0.0546875q0.013671875,0,0.0478515625,0.013671875t0.0478515625,0.013671875q0.0546875,0,0.1435546875-0.041015625t0.1572265625-0.041015625l0.08203125,0q0.0546875,0,0.1435546875-0.013671875t0.1435546875-0.013671875t0.109375,0.02734375q0.205078125,0,0.587890625-0.109375q0.013671875,0,0.0546875-0.013671875t0.0546875-0.013671875q0.08203125,0,0.13671875,0.0546875q0.068359375-0.0546875,0.205078125-0.109375l0.08203125,0q0.1640625,0,0.2734375,0.0546875q0.02734375,0,0.205078125,0.0478515625t0.19140625,0.0615234375l0.08203125,0l0.205078125,0q0.109375,0.02734375,0.21875,0.02734375q0.1640625,0,0.2734375-0.0546875l0.095703125,0q0.041015625,0,0.1435546875,0.013671875t0.1572265625,0.013671875q0.35546875,0,0.560546875,0.08203125q0.0546875-0.02734375,0.2734375-0.02734375q0.123046875-0.08203125,0.451171875-0.08203125q0.205078125,0,0.314453125,0.0546875q0.2734375,0.02734375,0.806640625,0.02734375q0.068359375,0.013671875,0.287109375-0.0205078125t0.30078125-0.0341796875q0.109375,0,0.13671875,0.02734375q0.41015625-0.13671875,0.423828125-0.13671875q0.109375,0,0.109375,0.109375q0.109375-0.0546875,0.232421875-0.0546875q0.19140625,0,0.30078125,0.109375q0.0546875,0,0.21875-0.013671875t0.205078125-0.013671875q0.13671875-0.13671875,0.478515625-0.13671875q0.013671875,0,0.041015625,0.013671875t0.041015625,0.013671875q0.328125,0.08203125,0.396484375,0.08203125q0.21875,0,0.3828125,0.109375q0.109375-0.0546875,0.232421875-0.0546875q0.13671875,0,0.24609375,0.0546875q0.08203125-0.02734375,0.341796875-0.02734375q0.1640625,0,0.21875,0.02734375q0.21875-0.0546875,0.341796875-0.0546875l0.08203125,0q0.041015625,0,0.1708984375,0.02734375t0.1845703125,0.02734375l0.0546875,0q0.109375-0.0546875,0.150390625-0.0546875t0.1435546875,0.0615234375t0.1572265625,0.0751953125q0.560546875,0.205078125,0.73828125,0.232421875q0.3828125,0.041015625,0.916015625,0.2734375q0.109375,0,0.2734375,0.0888671875t0.232421875,0.0888671875q0.08203125,0,0.13671875-0.02734375q0.02734375-0.02734375,0.08203125-0.02734375q0.095703125,0,0.123046875,0.0546875l0.0546875,0.109375l0,0.0546875q0,0.02734375,0.08203125,0.08203125q0.041015625,0.02734375,0.1640625,0.095703125t0.1640625,0.095703125q0.13671875,0.041015625,0.423828125,0.2255859375t0.341796875,0.2802734375q0.0546875,0.041015625,0.123046875,0.1162109375t0.150390625,0.19140625t0.109375,0.1435546875q0.068359375,0.109375,0.177734375,0.109375q0.041015625,0,0.177734375-0.08203125t0.259765625-0.08203125q0.177734375,0,0.177734375,0.109375q0,0.0546875-0.08203125,0.1572265625t-0.123046875,0.1298828125q-0.08203125,0.08203125-0.08203125,0.19140625q0,0.02734375,0.0546875,0.19140625q0.123046875,0.123046875,0.232421875,0.341796875q0.08203125,0.123046875,0.2666015625,0.3759765625t0.2666015625,0.3759765625q0.0546875-0.0546875,0.1640625-0.0546875t0.109375,0.13671875q0,0.150390625-0.08203125,0.232421875q0.013671875,0.02734375,0.13671875,0.21875q0.02734375,0.041015625,0.2119140625,0.13671875t0.1845703125,0.177734375q0,0.0546875-0.0546875,0.109375q0.109375-0.041015625,0.109375,0.0546875q0,0.041015625-0.0546875,0.1845703125t-0.0546875,0.1845703125l0,0.02734375q0.19140625,0.314453125,0.19140625,0.615234375q0.177734375,0.30078125,0.24609375,1.080078125q0.08203125,0.287109375,0.13671875,0.642578125t0.0615234375,0.5673828125t0.0205078125,0.6904296875t0.013671875,0.6015625q0.1640625-0.08203125,0.24609375-0.08203125q0.095703125,0,0.123046875,0.0546875z M33.45703125,41.068359375l0.19140625-0.109375l-0.19140625,0.109375q0.177734375-0.123046875,0.5263671875-0.3623046875t0.5263671875-0.3623046875q-0.123046875,0.068359375-1.107421875,0.724609375l0.0546875,0z M35.248046875,39.1953125q0-0.0546875,0.02734375-0.0546875q-0.533203125,0.41015625-4.142578125,3.076171875l0.08203125,0q0.095703125,0,0.21875-0.068359375t0.3076171875-0.2119140625t0.1982421875-0.1572265625q0.13671875-0.095703125,0.4169921875-0.2939453125t0.4169921875-0.2939453125q0.205078125-0.13671875,0.615234375-0.423828125t0.6015625-0.423828125q0.587890625-0.35546875,0.833984375-0.451171875q0.068359375-0.02734375,0.0888671875-0.1298828125t0.0751953125-0.1435546875q0-0.08203125,0.0478515625-0.1572265625t0.1162109375-0.150390625t0.095703125-0.1162109375z M30.791015625,42.5859375q0.02734375-0.02734375,0.02734375-0.08203125l0-0.0546875l-0.109375,0.109375q0.02734375,0.02734375,0.08203125,0.02734375z M36.0546875,37.85546875l-0.109375,0.08203125q0.02734375-0.02734375,0.109375-0.08203125q-0.041015625,0.123046875-0.751953125,0.478515625q-0.369140625,0.205078125-0.95703125,0.615234375q0.916015625-0.533203125,1.708984375-1.09375z M34.8515625,38.306640625l0.1640625-0.123046875l-0.615234375,0.396484375q0.109375-0.0546875,0.451171875-0.2734375q0.123046875-0.08203125,0.341796875-0.232421875t0.396484375-0.2666015625t0.328125-0.2119140625q0.21875-0.109375,0.30078125-0.19140625q0.0546875-0.02734375,0.1162109375-0.1162109375t0.1162109375-0.1298828125q0.13671875-0.109375,0.21875-0.4306640625t0.08203125-0.6083984375l0-0.1640625q-2.091796875,1.244140625-4.525390625,2.625q-0.13671875,0.08203125-0.41015625,0.2392578125t-0.41015625,0.2392578125q-0.0546875,0.02734375-0.1025390625,0.1435546875t-0.1162109375,0.1572265625q-0.109375,0.08203125-0.369140625,0.150390625l-0.21875,0.21875q-0.068359375,0.068359375-0.1435546875,0.21875t-0.1435546875,0.205078125q-0.095703125,0.068359375-0.35546875,0.13671875q-0.013671875,0.041015625-0.0478515625,0.123046875t-0.0478515625,0.123046875q-0.21875,0.287109375-0.35546875,0.314453125q-0.02734375,0.02734375-0.109375,0.02734375q-0.02734375,0-0.0751953125-0.02734375t-0.0751953125-0.02734375q-0.0546875,0-0.08203125,0.02734375q-0.0546875,0.0546875-0.19140625,0.0546875l-0.369140625,0q-0.041015625,0.041015625-0.205078125,0.150390625t-0.205078125,0.19140625q-0.041015625,0.068359375-0.1298828125,0.205078125t-0.1298828125,0.205078125q-0.123046875,0.232421875-0.3759765625,0.642578125t-0.2939453125,0.478515625q0.35546875-0.109375,0.7724609375-0.3076171875t0.6904296875-0.3623046875t0.7587890625-0.4580078125t0.6630859375-0.4033203125t4.703125-2.939453125z M24.748046875,42.72265625q0.369140625-0.1640625,0.7587890625-0.4169921875t0.8818359375-0.615234375t0.7109375-0.4990234375q-0.068359375-0.068359375-0.314453125-0.068359375l-0.328125,0q-0.0546875-0.02734375-0.205078125-0.02734375l-0.21875,0q-0.02734375,0-0.205078125-0.02734375t-0.2734375-0.02734375q-0.259765625,0-0.30078125,0.150390625l-0.232421875,0.697265625t-0.2734375,0.833984375z M20.427734375,42.39453125l0.287109375-0.205078125l-0.314453125,0.232421875l0.02734375-0.02734375q0.697265625-0.4375,2.3515625-1.626953125q0.013671875-0.013671875,0.13671875-0.123046875t0.21875-0.1845703125t0.2119140625-0.1298828125t0.1982421875-0.041015625q0.02734375-0.0546875,0.02734375-0.1640625l0-0.150390625q-1.33984375,1.107421875-4.033203125,2.802734375q0.341796875-0.0546875,0.3828125-0.08203125q0.21875-0.109375,0.505859375-0.30078125z M19.59375,38.470703125l0,0.0546875q1.189453125-1.01171875,3.240234375-2.5703125q-1.17578125,0.669921875-2.064453125,1.23046875q-0.02734375,0.013671875-0.2666015625,0.1572265625t-0.3486328125,0.2255859375q-0.123046875,0.068359375-0.314453125,0.205078125q-0.1640625,0.041015625-0.1640625,0.19140625l0,0.0546875q-0.02734375,0.068359375-0.041015625,0.2255859375t-0.041015625,0.2255859375z M19.67578125,36.009765625l0.21875-0.232421875q-0.21875,0.205078125-0.21875,0.232421875q0.6015625-0.6015625,1.681640625-1.380859375q0.916015625-0.697265625,1.44921875-1.06640625q0.02734375-0.013671875,0.3076171875-0.19140625t0.4306640625-0.3212890625t0.13671875-0.2666015625q-0.4375,0.24609375-0.8955078125,0.560546875t-1.025390625,0.724609375t-0.8544921875,0.615234375q-0.041015625,0.02734375-0.2734375,0.1982421875t-0.4580078125,0.2939453125t-0.3896484375,0.123046875q-0.08203125,0-0.109375-0.02734375q0,0.0546875-0.013671875,0.177734375t-0.013671875,0.19140625q0,0.0546875,0.013671875,0.1845703125t0.013671875,0.1845703125z M19.59375,34.41015625l0.1640625-0.109375l-0.1640625,0.109375q0.7109375-0.546875,1.4765625-1.06640625q-0.13671875,0.08203125-0.4306640625,0.2529296875t-0.4306640625,0.2529296875q-0.041015625,0.013671875-0.1845703125,0.08203125t-0.2255859375,0.109375t-0.1572265625,0.123046875t-0.0751953125,0.1640625q0,0.013671875,0.013671875,0.041015625t0.013671875,0.041015625z M22.587890625,24.83984375l-0.0546875,0.02734375l0.0546875-0.02734375q-0.08203125,0.013671875-0.423828125,0.2734375q0.068359375-0.041015625,0.2119140625-0.13671875t0.2119140625-0.13671875z M32.6640625,25.509765625q-0.30078125,0.150390625-0.8134765625,0.451171875t-0.7177734375,0.41015625q-0.13671875,0.08203125-0.4853515625,0.2939453125t-0.5537109375,0.3212890625q-0.02734375,0.013671875-0.13671875,0.0888671875t-0.2119140625,0.1298828125t-0.1572265625,0.041015625q0.150390625,0.109375,0.21875,0.109375q0.109375,0,0.232421875-0.08203125q0.13671875-0.08203125,0.4033203125-0.2529296875t0.4033203125-0.2529296875t1.203125-0.8203125q0.02734375-0.013671875,0.1845703125-0.1298828125t0.287109375-0.2119140625t0.1435546875-0.095703125z M34.154296875,26.2890625l-0.287109375,0.13671875l0.287109375-0.13671875q-0.423828125,0.232421875-3.19921875,1.900390625q0.0546875,0.08203125,0.2255859375,0.2529296875t0.2255859375,0.2802734375q0.02734375-0.068359375,0.1298828125-0.1572265625t0.2529296875-0.19140625t0.177734375-0.1298828125q0.90234375-0.724609375,1.06640625-0.861328125z M34.90625,27.150390625l-0.1640625,0.123046875q0.02734375,0,0.1025390625-0.0546875t0.0615234375-0.068359375q-0.560546875,0.341796875-2.48828125,1.572265625q-0.0546875,0.02734375-0.21875,0.150390625t-0.30078125,0.19140625t-0.232421875,0.0546875q0.259765625,0.478515625,0.328125,0.833984375q1.4765625-1.107421875,2.296875-1.873046875q0.068359375-0.068359375,0.19140625-0.1845703125t0.232421875-0.2255859375t0.19140625-0.205078125q0.08203125-0.08203125,0.08203125-0.13671875q0-0.095703125-0.08203125-0.177734375z M32.36328125,30.568359375l0,0.02734375l0-0.02734375l0-0.02734375q0-0.068359375,0.1025390625-0.1572265625t0.2666015625-0.19140625t0.3212890625-0.1845703125t0.3212890625-0.1708984375t0.19140625-0.1025390625q0.19140625-0.109375,0.546875-0.3486328125t0.546875-0.3486328125q-1.0390625,0.587890625-2.05078125,1.1484375q-0.0546875,0.041015625-0.1435546875,0.0546875t-0.150390625,0.013671875t-0.109375,0.02734375t-0.0478515625,0.095703125q0,0.013671875,0.013671875,0.0546875t0.013671875,0.0546875q0.02734375,0.068359375,0.1025390625,0.2529296875t0.123046875,0.341796875t0.0615234375,0.2802734375q0.24609375-0.19140625,1.025390625-0.7724609375t1.189453125-0.9091796875q-1.490234375,1.06640625-2.0234375,1.06640625q-0.21875,0-0.30078125-0.177734375z M37.0390625,32.728515625q-0.02734375,0.02734375-0.02734375,0.0546875q0.02734375-0.02734375,0.02734375-0.0546875q-0.998046875,0.84765625-2.939453125,2.32421875q1.982421875-1.244140625,2.4609375-1.517578125l0.150390625-0.0751953125t0.21875-0.1162109375t0.109375-0.109375q0.02734375-0.0546875,0.02734375-0.1640625q0-0.0546875-0.013671875-0.1708984375t-0.013671875-0.1708984375z M32.4453125,35.982421875l0.328125-0.259765625l-0.328125,0.259765625q1.203125-0.888671875,2.5703125-1.99609375q-1.39453125,0.943359375-2.091796875,1.203125q-0.2734375,0.109375-0.396484375,0.109375q-0.08203125,0.02734375-0.08203125,0.451171875l0,0.232421875z M28.330078125,40.31640625l0.02734375,0l-0.02734375,0q0.314453125-0.123046875,0.328125-0.13671875q0.21875-0.095703125,0.451171875-0.287109375q0.0546875-0.02734375,0.205078125-0.0888671875t0.21875-0.1572265625q0.095703125-0.19140625,0.21875-0.314453125q0.21875-0.205078125,0.6083984375-0.51953125t0.4853515625-0.396484375t0.1845703125-0.21875t0.1298828125-0.24609375t0.1162109375-0.3076171875t0.1025390625-0.2666015625q0.08203125-0.423828125,0.1640625-0.533203125l0-0.02734375q0-0.095703125,0.068359375-0.2939453125t0.109375-0.2666015625l0-0.0546875q0-0.259765625,0.08203125-0.505859375q0.013671875-0.0546875,0.02734375-0.1982421875t0.02734375-0.1982421875q-0.02734375-0.08203125-0.02734375-0.2734375q0-0.205078125,0.08203125-0.779296875q-0.08203125-0.943359375-0.08203125-0.984375q0.109375-0.84765625,0.13671875-0.9296875q-0.013671875,0-0.0478515625,0.013671875t-0.0615234375,0.013671875q-0.21875,0-0.21875-0.109375q0-0.0546875,0.08203125-0.13671875q0.013671875-0.013671875,0.068359375-0.041015625t0.0888671875-0.0546875t0.0341796875-0.068359375q-0.0546875-0.2734375-0.0546875-0.478515625q-0.02734375-0.068359375-0.109375-0.3896484375t-0.150390625-0.4580078125q-0.02734375,0.013671875-0.2734375,0.177734375q-0.02734375,0.02734375-0.08203125,0.02734375q-0.13671875,0-0.13671875-0.13671875q0-0.095703125,0.0546875-0.123046875q0.02734375-0.02734375,0.0888671875-0.0615234375t0.1025390625-0.0546875t0.0751953125-0.068359375t0.0341796875-0.0888671875q0-0.08203125-0.02734375-0.109375q-0.0546875-0.08203125-0.1025390625-0.2119140625t-0.095703125-0.2939453125t-0.0751953125-0.232421875q-0.13671875-0.109375-0.314453125-0.46484375q-0.041015625-0.068359375-0.150390625-0.1708984375t-0.150390625-0.1708984375q-0.123046875-0.08203125-0.150390625-0.08203125q-0.0546875,0-0.109375,0.02734375q-0.02734375,0.02734375-0.08203125,0.02734375q-0.109375-0.041015625-0.109375-0.109375q0-0.08203125,0.08203125-0.1640625q-0.396484375-0.35546875-1.01171875-0.6015625q-0.109375-0.041015625-0.4716796875-0.2255859375t-0.5947265625-0.1845703125q-0.109375,0-0.1982421875-0.041015625t-0.1298828125-0.041015625q-0.02734375,0-0.19140625,0.0546875q-0.24609375,0.08203125-0.287109375,0.08203125q-0.08203125,0-0.13671875-0.0546875q-0.041015625-0.02734375-0.0615234375-0.095703125t-0.0478515625-0.08203125q-0.08203125,0.041015625-0.205078125,0.041015625q-0.19140625,0-0.2734375-0.041015625q-0.0546875,0-0.1640625,0.0615234375t-0.177734375,0.0615234375q-0.08203125-0.08203125-0.2734375-0.08203125l-0.02734375,0q-0.1640625,0.08203125-0.259765625,0.08203125q-0.3828125-0.0546875-0.587890625-0.0546875q-0.287109375,0-0.505859375,0.109375q-0.041015625,0.02734375-0.109375,0.0478515625t-0.095703125,0.0341796875t-0.068359375,0.0615234375t-0.0546875,0.1298828125q0.0546875,0.1640625,0.0546875,0.341796875q0,0.041015625-0.013671875,0.1162109375t-0.013671875,0.1025390625q0.02734375,0.02734375,0.02734375,0.13671875l0,0.123046875l0.02734375,0q0.13671875,0,0.13671875,0.13671875l0,0.02734375q0,0.0546875-0.0751953125,0.123046875t-0.0888671875,0.095703125q0.02734375,0.02734375,0.02734375,0.123046875q0,0.109375-0.02734375,0.13671875q0.02734375,0.109375,0.02734375,0.35546875q0,0.150390625-0.013671875,0.4169921875t-0.013671875,0.3759765625q0.0546875-0.02734375,0.19140625-0.02734375q0.205078125,0,0.205078125,0.109375q0,0.02734375-0.0546875,0.13671875q-0.041015625,0.08203125-0.177734375,0.1982421875t-0.1640625,0.1982421875q0,0.08203125-0.0546875,0.30078125q0,0.0546875,0.0615234375,0.13671875t0.0478515625,0.123046875q-0.013671875,0.0546875-0.068359375,0.1025390625t-0.068359375,0.0888671875l0,0.13671875q0.0546875,0.109375,0.0546875,0.451171875q0,0.02734375,0.0615234375,0.041015625t0.13671875,0.0478515625t0.1025390625,0.0751953125q0.02734375,0.02734375,0.02734375,0.095703125q0,0.0546875-0.0478515625,0.1162109375t-0.1298828125,0.1298828125t-0.095703125,0.08203125l0,0.19140625q0,0.259765625-0.08203125,0.751953125t-0.08203125,0.73828125l0,0.109375q0.109375,0.2734375,0.109375,0.642578125q0,0.041015625-0.013671875,0.109375l-0.013671875,0.068359375q-0.109375,0.65625-0.109375,0.669921875q0,0.02734375,0.013671875,0.068359375t0.013671875,0.068359375q0.013671875,0,0.041015625-0.013671875t0.041015625-0.013671875q0.19140625,0,0.19140625,0.21875q0,0.13671875-0.08203125,0.259765625q-0.0546875,0.0546875-0.0546875,0.1640625q0,0.0546875,0.02734375,0.1572265625t0.02734375,0.1572265625t-0.02734375,0.109375q0.0546875,0.21875,0.0546875,0.478515625q0,0.21875-0.0546875,0.4921875q-0.013671875,0.041015625-0.0205078125,0.232421875t-0.0341796875,0.2734375q0,0.068359375,0.013671875,0.19140625t0.013671875,0.177734375q0,0.1640625-0.08203125,0.2734375q0,0.02734375,0.013671875,0.109375t0.013671875,0.123046875q0,0.123046875-0.02734375,0.3759765625t-0.02734375,0.3759765625l0,0.109375q0.109375-0.02734375,0.505859375-0.02734375q0.24609375-0.08203125,0.533203125-0.08203125q0.205078125,0,0.587890625,0.0546875l0.19140625,0l0.396484375,0q0.0546875,0,0.287109375,0.041015625t0.3828125,0.041015625q0.1640625,0,0.24609375-0.02734375q0.095703125-0.02734375,0.560546875-0.109375q0.0546875-0.02734375,0.13671875-0.02734375q0.041015625,0,0.1162109375,0.02734375t0.1162109375,0.02734375q0.013671875,0,0.041015625-0.013671875t0.041015625-0.013671875z M19.56640625,38.921875l0.13671875-0.08203125l-0.13671875,0.08203125q0.4921875-0.30078125,1.4560546875-0.943359375t1.4560546875-0.943359375q0.833984375-0.505859375,0.943359375-0.560546875q0.150390625-0.068359375,0.150390625-0.3828125q0-0.0546875-0.013671875-0.1845703125t-0.013671875-0.1845703125q-0.3828125,0.30078125-1.1552734375,0.9091796875t-1.1416015625,0.9091796875q-0.314453125,0.205078125-1.0185546875,0.751953125t-0.6630859375,0.62890625z M19.5390625,29.59765625l0.109375-0.0546875l-0.109375,0.0546875q0.751953125-0.451171875,0.806640625-0.478515625q-0.068359375,0.02734375-0.30078125,0.0478515625t-0.3828125,0.08203125t-0.150390625,0.1982421875q0,0.095703125,0.02734375,0.150390625z M23.626953125,27.4921875l-0.451171875,0.24609375l0.451171875-0.24609375q-1.216796875,0.68359375-2.37890625,1.39453125q-0.259765625,0.13671875-0.7177734375,0.423828125t-0.6083984375,0.369140625q-0.02734375,0.013671875-0.109375,0.0615234375t-0.123046875,0.0751953125t-0.08203125,0.068359375t-0.041015625,0.095703125l0,0.02734375q0,0.041015625-0.013671875,0.1708984375t-0.013671875,0.1708984375q1.88671875-1.462890625,2.830078125-1.955078125q0.041015625-0.02734375,0.46484375-0.1845703125t0.62890625-0.3212890625t0.1640625-0.396484375z M27.400390625,25.359375q0.177734375-0.095703125,0.505859375-0.2802734375t0.505859375-0.2802734375q-0.109375-0.041015625-0.30078125,0.0615234375t-0.4306640625,0.287109375t-0.2802734375,0.2119140625z M19.51171875,31.07421875l0.02734375,0l-0.02734375,0q0.41015625-0.314453125,1.2236328125-0.84765625t1.1279296875-0.751953125q0.095703125-0.068359375,0.4853515625-0.30078125t0.6220703125-0.423828125t0.341796875-0.41015625q-0.0546875-0.02734375-0.2666015625,0.1162109375t-0.4375,0.3212890625t-0.2666015625,0.205078125q-0.19140625,0.123046875-1.462890625,0.916015625q-0.888671875,0.51953125-1.1484375,0.669921875q-0.068359375,0.041015625-0.109375,0.068359375t-0.0615234375,0.08203125t-0.02734375,0.08203125t-0.013671875,0.123046875t-0.0068359375,0.150390625z M19.56640625,31.8671875q0,0.013671875,0.013671875,0.041015625t0.013671875,0.041015625q1.517578125-1.0390625,2.994140625-2.1328125q-1.12109375,0.7109375-2.32421875,1.3671875q-0.123046875,0.08203125-0.533203125,0.287109375q-0.1640625,0.068359375-0.1640625,0.1640625l0,0.232421875z M20.345703125,30.828125l0.423828125-0.232421875q-0.314453125,0.150390625-0.423828125,0.232421875q0.65625-0.35546875,2.556640625-1.517578125q0.0546875-0.041015625,0.30078125-0.1640625t0.3623046875-0.24609375t0.1162109375-0.287109375l0-0.2734375q0-0.205078125-0.02734375-0.287109375q-0.0546875,0.0546875-0.0546875,0.13671875q0,0.150390625-0.0546875,0.259765625q-0.13671875,0.24609375-0.451171875,0.505859375q-0.3828125,0.314453125-0.8134765625,0.6083984375t-1.080078125,0.7109375t-0.8544921875,0.5537109375z M23.654296875,29.337890625l-0.109375,0.08203125q0.109375-0.0546875,0.109375-0.08203125q-0.259765625,0.232421875-0.79296875,0.587890625q0.041015625-0.02734375,0.2802734375-0.1435546875t0.369140625-0.2255859375t0.1435546875-0.21875z M23.654296875,30.0625q-0.9296875,0.73828125-2.48828125,1.94140625q0.970703125-0.6015625,1.927734375-1.1484375q0.095703125-0.0546875,0.2939453125-0.1708984375t0.2939453125-0.1708984375l0-0.21875q0-0.177734375-0.02734375-0.232421875z M23.572265625,31.580078125q-0.19140625,0.109375-0.57421875,0.3349609375t-0.57421875,0.3349609375q0.1640625-0.08203125,0.642578125-0.35546875l0.1640625-0.08203125t0.2392578125-0.1298828125t0.1025390625-0.1025390625z M22.560546875,32.646484375l0.369140625-0.19140625q-0.08203125,0-0.369140625,0.19140625q0.451171875-0.2734375,0.888671875-0.423828125q0.177734375-0.068359375,0.177734375-0.1640625l0-0.109375q-0.21875,0.123046875-0.5947265625,0.3759765625t-0.4716796875,0.3212890625z M22.861328125,32.783203125q-0.068359375,0.041015625-0.35546875,0.2119140625t-0.478515625,0.2939453125q0.13671875-0.08203125,0.4169921875-0.2529296875t0.4169921875-0.2529296875z M36.806640625,35.3671875q-0.013671875,0.0546875-0.19140625,0.150390625t-0.4033203125,0.205078125t-0.2666015625,0.13671875q-0.2734375,0.150390625-0.765625,0.4443359375t-0.546875,0.3212890625q-0.24609375,0.150390625-0.7451171875,0.4443359375t-0.8818359375,0.533203125t-0.724609375,0.4716796875q0.478515625-0.2734375,1.408203125-0.833984375t1.408203125-0.84765625q0.19140625-0.095703125,0.546875-0.3076171875t0.546875-0.3076171875q0.02734375-0.013671875,0.150390625-0.068359375t0.1982421875-0.095703125t0.1640625-0.109375t0.1025390625-0.13671875z M33.73046875,36.59765625l0.02734375-0.02734375q0-0.013671875-0.0546875,0.0205078125t-0.109375,0.0751953125l-0.0546875,0.041015625q0.0546875-0.02734375,0.19140625-0.109375q0.109375-0.068359375,0.3212890625-0.2119140625t0.3212890625-0.2119140625q-1.599609375,0.998046875-2.1875,1.421875q0.24609375-0.177734375,0.765625-0.4990234375t0.779296875-0.4990234375z M32.5546875,37.0078125q0.013671875,0.013671875-0.0546875,0.0546875l0.0546875-0.0546875l-0.123046875,0.0546875q-0.123046875,0.068359375-0.2255859375,0.13671875t-0.1025390625,0.123046875q0.068359375-0.0546875,0.2255859375-0.1572265625t0.2255859375-0.1572265625z M32.3359375,36.447265625q0.02734375-0.02734375,0.02734375-0.0546875q-0.02734375,0.02734375-0.02734375,0.0546875q0.21875-0.1640625,0.2734375-0.21875q-0.02734375,0.02734375-0.109375,0.02734375t-0.109375-0.02734375q-0.0546875,0.109375-0.0546875,0.21875z M32.52734375,34.68359375l0-0.02734375l0,0.02734375l0,0.095703125q2.40625-1.96875,3.52734375-3.03515625q-0.3828125,0.21875-1.12109375,0.6494140625t-1.12109375,0.6494140625q-0.205078125,0.109375-0.57421875,0.3349609375t-0.57421875,0.3349609375q-0.13671875,0.068359375-0.13671875,0.30078125q0,0.068359375,0.013671875,0.2255859375t0.013671875,0.2255859375q0,0.1640625-0.02734375,0.21875z M32.52734375,33.015625l0-0.041015625l0,0.041015625q0.013671875-0.041015625,0.1025390625-0.1162109375t0.205078125-0.1640625t0.1435546875-0.1162109375q0.328125-0.287109375,0.642578125-0.478515625q-0.08203125,0.041015625-1.01171875,0.560546875q-0.041015625,0.02734375-0.0546875,0.0751953125t-0.013671875,0.123046875t-0.013671875,0.1162109375z M32.58203125,32.27734375l0.0546875-0.0546875l-0.0546875,0.0546875q0.150390625-0.150390625,0.4716796875-0.4033203125t0.4306640625-0.3486328125q-0.068359375,0.0546875-0.314453125,0.1640625t-0.4169921875,0.2392578125t-0.1708984375,0.2666015625l0,0.08203125z M30.654296875,27.916015625l0.2734375-0.287109375q-0.2734375,0.232421875-0.2734375,0.287109375q0.943359375-0.90234375,1.955078125-1.791015625q-0.287109375,0.1640625-1.1416015625,0.642578125t-1.3193359375,0.751953125q0.02734375,0.02734375,0.2255859375,0.1572265625t0.2802734375,0.2392578125z M29.505859375,27.150390625l-0.02734375-0.02734375l0.02734375,0.02734375q0-0.013671875-0.013671875-0.041015625t-0.013671875-0.041015625q0-0.123046875,0.150390625-0.341796875t0.328125-0.41015625t0.3828125-0.396484375t0.232421875-0.24609375q-0.314453125,0.177734375-0.943359375,0.5400390625t-0.943359375,0.5537109375q0.068359375,0.068359375,0.423828125,0.19140625t0.396484375,0.19140625z M27.82421875,26.5078125l0.1640625-0.109375q-0.1640625,0.08203125-0.1640625,0.109375q1.189453125-0.90234375,1.626953125-1.3125q-1.2578125,0.7109375-2.10546875,1.23046875q0.232421875,0,0.478515625,0.08203125z M25.47265625,25.646484375l-0.24609375,0.13671875q0.0546875-0.02734375,0.24609375-0.13671875q0.109375-0.068359375,0.369140625-0.259765625q-1.3671875,0.724609375-2.0712890625,1.107421875t-1.818359375,1.080078125t-1.9345703125,1.353515625q0.177734375-0.02734375,0.3759765625-0.1025390625t0.3349609375-0.13671875t0.35546875-0.177734375t0.328125-0.1708984375q1.408203125-0.84765625,1.818359375-1.12109375q0.02734375-0.013671875,0.177734375-0.150390625t0.21875-0.1640625l0-0.0546875q0-0.123046875,0.109375-0.1640625q0.19140625-0.19140625,0.341796875-0.232421875q0.21875-0.0546875,0.4580078125-0.19140625t0.51953125-0.3349609375t0.4169921875-0.2802734375z M19.703125,28.53125l0.0546875-0.0546875l-0.0546875,0.0546875q0.205078125-0.205078125,0.4306640625-0.4033203125t0.4990234375-0.41015625t0.4580078125-0.35546875t0.51953125-0.3759765625t0.4716796875-0.328125t0.5263671875-0.35546875t0.4853515625-0.328125q-0.9296875,0.505859375-2.296875,1.326171875q-0.30078125,0.150390625-1.12109375,0.642578125q-0.1640625,0.08203125-0.1640625,0.35546875q0,0.177734375,0.0546875,0.396484375q0.02734375-0.0546875,0.13671875-0.1640625z M19.5390625,27.6015625l0.0546875-0.0546875l-0.0546875,0.0546875q0.232421875-0.232421875,0.5126953125-0.4990234375t0.478515625-0.4306640625t0.560546875-0.46484375t0.5126953125-0.423828125q-0.109375,0.068359375-0.669921875,0.4443359375t-0.9501953125,0.57421875t-0.7587890625,0.2666015625q0.02734375,0.068359375,0.095703125,0.287109375t0.13671875,0.328125z M16.599609375,26.09765625q0.51953125-0.8203125,0.806640625-1.298828125q-0.0546875,0.041015625-0.259765625,0.1435546875t-0.3486328125,0.205078125t-0.1708984375,0.2119140625q0,0.02734375,0.013671875,0.123046875t0.013671875,0.1640625q0,0.287109375-0.0546875,0.451171875z M19.56640625,32.865234375l0.02734375,0l0-0.02734375l-0.02734375,0.02734375q0-0.041015625,0.8681640625-0.6767578125t1.0595703125-0.7724609375q1.763671875-1.39453125,1.900390625-1.490234375q-0.533203125,0.328125-1.4423828125,0.998046875t-1.2919921875,0.916015625q-0.669921875,0.41015625-0.84765625,0.46484375q-0.232421875,0.109375-0.24609375,0.150390625q0.02734375,0.0546875,0.02734375,0.21875q0,0.13671875-0.02734375,0.19140625z M23.626953125,30.85546875l-0.451171875,0.24609375l0.451171875-0.24609375q-1.3671875,0.765625-2.37890625,1.421875q-0.259765625,0.13671875-0.7314453125,0.4375t-0.5947265625,0.3828125q-0.02734375,0.013671875-0.1025390625,0.0615234375t-0.1025390625,0.0615234375t-0.08203125,0.0615234375t-0.068359375,0.0751953125t-0.0341796875,0.0751953125t-0.0205078125,0.1025390625l0,0.068359375q1.298828125-0.806640625,2.32421875-1.462890625q0.177734375-0.123046875,0.5400390625-0.3623046875t0.5537109375-0.3623046875q0.041015625-0.02734375,0.2392578125-0.1435546875t0.314453125-0.21875t0.1435546875-0.1982421875z M21.658203125,33.822265625l-0.41015625,0.24609375q0.3828125-0.24609375,0.41015625-0.24609375q-1.134765625,0.68359375-1.5859375,1.06640625q0.30078125-0.177734375,1.5859375-1.06640625z M20.6328125,35.53125l-0.123046875,0.08203125q-0.02734375,0,0.314453125-0.24609375q-0.02734375,0.02734375-0.19140625,0.1640625q-0.587890625,0.46484375-0.875,0.779296875q2.337890625-1.33984375,2.515625-1.44921875q0.19140625-0.109375,0.5810546875-0.3349609375t0.5947265625-0.3349609375q0.08203125-0.0546875,0.13671875-0.232421875t0.08203125-0.423828125t0.041015625-0.30078125q-0.123046875,0.095703125-1.3056640625,0.95703125t-1.7705078125,1.33984375z M23.544921875,34.4921875q-0.4921875,0.423828125-1.4833984375,1.244140625t-1.4833984375,1.244140625q1.818359375-1.134765625,2.65234375-1.53125q0.02734375-0.013671875,0.1025390625-0.0478515625t0.123046875-0.0546875t0.095703125-0.068359375t0.0478515625-0.0888671875l0-0.08203125q0-0.08203125-0.02734375-0.2666015625t-0.02734375-0.2666015625l0-0.08203125z M21.166015625,38.333984375l-0.123046875,0.0546875q0,0.013671875,0.2392578125-0.123046875t0.4716796875-0.2734375l0.24609375-0.13671875q-0.21875,0.109375-0.833984375,0.478515625q-1.052734375,0.65625-1.17578125,0.724609375q-0.0546875,0.041015625-0.177734375,0.095703125t-0.150390625,0.0888671875t-0.013671875,0.1162109375l0,0.150390625q0.4375-0.30078125,1.2509765625-0.79296875t1.1279296875-0.697265625q0.205078125-0.123046875,0.587890625-0.3759765625t0.587890625-0.3759765625q0.13671875-0.095703125,0.451171875-0.341796875q0-0.041015625-0.013671875-0.123046875t-0.013671875-0.123046875q-0.08203125,0.0546875-0.21875,0.21875t-0.232421875,0.232421875q-0.287109375,0.205078125-0.615234375,0.4033203125t-0.7587890625,0.4375t-0.6357421875,0.3623046875z M23.654296875,37.486328125l0-0.02734375l0,0.02734375q0.0546875-0.02734375,0.0546875-0.13671875l0-0.109375q-0.0546875,0.041015625-0.1708984375,0.109375t-0.1708984375,0.109375q0.109375-0.0546875,0.177734375-0.0546875t0.109375,0.08203125z M22.13671875,41.6015625l-0.1640625,0.13671875q-0.02734375,0,0.341796875-0.2734375q-0.041015625,0.02734375-0.177734375,0.13671875q-0.79296875,0.62890625-1.17578125,1.01171875q0.287109375-0.1640625,0.861328125-0.505859375t0.875-0.505859375q0.150390625-0.08203125,0.4443359375-0.2529296875t0.4580078125-0.2529296875q0.02734375-0.02734375,0.02734375-0.109375q0-0.041015625-0.02734375-0.177734375t-0.02734375-0.205078125l0-0.068359375q-0.724609375,0.51953125-1.435546875,1.06640625z M24.1875,41.21875q-0.177734375,0.13671875-0.177734375,0.1640625q0.013671875-0.013671875,0.0341796875-0.02734375l0.0615234375-0.041015625t0.068359375-0.0546875t0.013671875-0.041015625q-0.21875,0.1640625-0.6357421875,0.4990234375t-0.6220703125,0.4990234375q0.423828125-0.2734375,1.900390625-1.12109375q-0.02734375-0.02734375-0.08203125-0.02734375q-0.068359375,0-0.232421875,0.0888671875t-0.24609375,0.0888671875q-0.013671875,0-0.041015625-0.013671875t-0.041015625-0.013671875z M36.95703125,34.62890625q-0.013671875,0.0546875-0.2119140625,0.1640625t-0.4443359375,0.232421875t-0.30078125,0.1640625q-0.232421875,0.123046875-0.642578125,0.3759765625t-0.478515625,0.2939453125q1.189453125-0.697265625,1.681640625-0.861328125q0.1640625-0.0546875,0.2734375-0.0546875q0.123046875-0.041015625,0.123046875-0.13671875l0-0.177734375z M32.2265625,36.8984375q0.451171875-0.24609375,1.33984375-0.7587890625t1.33984375-0.7724609375q0.21875-0.13671875,0.7861328125-0.46484375t0.8681640625-0.51953125q0.041015625-0.02734375,0.1162109375-0.0615234375t0.109375-0.0478515625t0.08203125-0.041015625t0.0751953125-0.0478515625t0.0546875-0.0546875t0.041015625-0.068359375t0.0205078125-0.08203125t0.0068359375-0.1025390625q0-0.13671875-0.02734375-0.21875q-1.3125,0.8203125-2.966796875,1.900390625q-0.21875,0.13671875-0.615234375,0.4169921875t-0.615234375,0.4169921875q-0.041015625,0.02734375-0.1982421875,0.13671875t-0.2734375,0.205078125t-0.1435546875,0.1640625z M36.984375,32.11328125q-0.095703125-0.21875-0.177734375-1.01171875q-0.0546875-0.123046875-0.1025390625-0.3896484375t-0.0615234375-0.3076171875q-1.203125,0.73828125-2.5703125,1.708984375q-0.84765625,0.62890625-1.203125,0.984375q-0.369140625,0.24609375-0.369140625,0.35546875l0,0.02734375q0.615234375-0.35546875,1.859375-1.06640625t1.859375-1.080078125q0.02734375-0.013671875,0.177734375-0.109375t0.21875-0.095703125q0.095703125,0,0.13671875,0.08203125q0.109375,0.24609375-0.642578125,0.84765625q-0.998046875,0.943359375-3.4453125,2.939453125q0.724609375-0.232421875,1.9140625-1.0390625q0.478515625-0.30078125,1.736328125-1.1484375q0.08203125-0.068359375,0.615234375-0.451171875q0.08203125-0.041015625,0.08203125-0.08203125q0-0.02734375-0.013671875-0.0751953125t-0.013671875-0.0888671875z M36.451171875,29.76171875q0,0.013671875-0.68359375,0.505859375t-1.4423828125,1.025390625t-0.8681640625,0.62890625q0.697265625-0.423828125,2.146484375-1.271484375q0.13671875-0.08203125,0.41015625-0.232421875t0.41015625-0.232421875q0.109375-0.068359375,0.109375-0.150390625q0-0.041015625-0.0341796875-0.13671875t-0.0478515625-0.13671875z M34.6875,30.130859375l0.21875-0.177734375l-0.35546875,0.259765625q0.0546875-0.02734375,0.13671875-0.08203125q0.9296875-0.68359375,1.17578125-0.84765625q0.0546875-0.041015625,0.13671875-0.08203125t0.123046875-0.0751953125t0.041015625-0.0888671875q0-0.068359375-0.08203125-0.150390625q-0.875,0.751953125-2.802734375,2.21484375q0.615234375-0.41015625,1.408203125-0.970703125z M35.75390625,28.3671875q0-0.013671875-0.013671875,0.02734375q-0.0546875,0.109375-0.08203125,0.13671875q-0.041015625,0.0546875-0.095703125,0.109375t-0.123046875,0.1162109375t-0.109375,0.1025390625q-0.57421875,0.46484375-2.2421875,1.462890625q0.533203125-0.24609375,1.544921875-0.9296875q0.13671875-0.095703125,0.51953125-0.369140625t0.6015625-0.41015625q0.08203125-0.08203125,0.08203125-0.109375q0-0.013671875-0.08203125-0.13671875z M35.193359375,27.546875q0.013671875,0.041015625-0.3623046875,0.4033203125t-0.4580078125,0.4169921875q-0.875,0.765625-1.3671875,1.1484375q0.232421875-0.123046875,0.68359375-0.396484375t0.68359375-0.396484375q0.095703125-0.0546875,0.3212890625-0.2119140625t0.423828125-0.2529296875t0.3759765625-0.095703125q0.02734375,0,0.068359375,0.013671875t0.068359375,0.013671875q-0.068359375-0.109375-0.21875-0.3212890625t-0.21875-0.3212890625z M34.6328125,26.794921875q-0.0546875-0.041015625-0.1435546875-0.1572265625t-0.1435546875-0.1572265625q-0.46484375,0.533203125-1.845703125,1.681640625q0.123046875-0.068359375,0.62890625-0.3828125t1.01171875-0.6357421875t0.4921875-0.3486328125z M33.73046875,26.015625q-0.0546875-0.013671875-0.1708984375-0.109375t-0.1982421875-0.095703125q-0.0546875,0-0.13671875,0.08203125q-0.177734375,0.177734375-0.560546875,0.505859375q-0.875,0.8203125-1.3671875,1.2578125q0.13671875-0.08203125,1.1005859375-0.65625t1.4970703125-0.875q-0.109375-0.0546875-0.1640625-0.109375z M31.3515625,25.0859375q0.041015625,0-0.24609375,0.3623046875t-0.369140625,0.4443359375q-0.109375,0.123046875-0.3349609375,0.396484375t-0.3349609375,0.396484375q0.970703125-0.546875,2.26953125-1.326171875q-0.1640625-0.02734375-0.4921875-0.1435546875t-0.4921875-0.1298828125z M30.845703125,24.94921875l-0.24609375,0q-0.451171875,0-0.533203125-0.08203125q-0.02734375,0.109375-0.1162109375,0.2255859375t-0.1708984375,0.19140625t-0.2255859375,0.1845703125t-0.1845703125,0.150390625q-0.150390625,0.150390625-1.23046875,1.01171875q0.0546875,0.02734375,0.205078125-0.0478515625t0.287109375-0.1708984375t0.3076171875-0.21875t0.1982421875-0.150390625q0.875-0.62890625,1.01171875-0.7109375q0-0.013671875,0.1298828125-0.1025390625t0.314453125-0.1708984375t0.2802734375-0.08203125q0.08203125,0,0.08203125,0.08203125q0,0.0546875-0.02734375,0.08203125q0.041015625-0.013671875,0.1162109375-0.0546875t0.1162109375-0.0546875q-0.2734375-0.068359375-0.314453125-0.08203125z M26.484375,24.744140625l-0.341796875,0.177734375q0.095703125-0.041015625,0.341796875-0.177734375q-0.3828125,0.095703125-0.642578125,0.095703125l-0.150390625,0q-0.0546875,0-0.177734375-0.0205078125t-0.177734375-0.0205078125l-0.08203125,0q-1.75,1.189453125-2.078125,1.435546875q-1.99609375,1.408203125-2.884765625,2.1328125q0.90234375-0.65625,2.05078125-1.3466796875t1.96875-1.134765625t2.173828125-1.1416015625z M23.736328125,24.83984375l-0.21875,0q-0.341796875,0-0.451171875,0.08203125q-0.1640625,0.13671875-0.478515625,0.4033203125t-0.478515625,0.4033203125q-1.203125,0.984375-1.845703125,1.572265625q2.54296875-1.490234375,4.251953125-2.4609375q-0.068359375-0.068359375-0.21875-0.068359375q-0.068359375,0-0.232421875,0.0341796875t-0.24609375,0.0341796875l-0.08203125,0z M18.103515625,24.771484375l-0.02734375,0.02734375l0.02734375-0.02734375q-0.068359375,0.068359375-0.13671875,0.068359375q-0.02734375,0-0.0888671875-0.0205078125t-0.0751953125-0.0205078125q-0.041015625,0-0.109375,0.068359375q-0.041015625,0.068359375-0.1298828125,0.205078125t-0.1298828125,0.205078125q-0.08203125,0.123046875-0.2529296875,0.396484375t-0.2529296875,0.396484375q0.806640625-0.451171875,2.10546875-1.23046875l-0.08203125,0q-0.041015625,0-0.1435546875,0.013671875t-0.1435546875,0.013671875q-0.08203125,0-0.1640625-0.0478515625t-0.109375-0.0478515625l-0.0546875,0l-0.232421875,0z M19.78515625,34.779296875l-0.02734375,0.02734375l0.02734375-0.02734375q-0.109375,0-0.109375,0.109375l0,0.02734375q0.02734375-0.0546875,0.109375-0.13671875z M19.703125,37.240234375l0,0.109375q2.255859375-1.873046875,2.720703125-2.2421875q-0.533203125,0.287109375-1.736328125,0.984375q-0.1640625,0.08203125-0.451171875,0.2529296875t-0.451171875,0.2529296875q-0.109375,0.068359375-0.109375,0.21875q0,0.0546875,0.013671875,0.1708984375t0.013671875,0.1708984375l0,0.08203125z M18.6640625,41.068359375l0,0.0546875l0-0.0546875q-0.013671875,0.123046875-0.13671875,0.2119140625t-0.13671875,0.1025390625q-0.095703125,0.1640625-0.287109375,0.35546875q-0.396484375,0.505859375-0.751953125,0.90234375q3.158203125-2.21484375,4.89453125-3.158203125q0.861328125-0.478515625,1.244140625-0.615234375q0.123046875-0.041015625,0.1640625-0.2255859375t0.041015625-0.4580078125t0.013671875-0.35546875q-2.2421875,1.44921875-3.41796875,2.119140625q-0.8203125,0.41015625-0.861328125,0.423828125q0,0.41015625-0.259765625,0.587890625q-0.109375,0.068359375-0.2802734375,0.08203125t-0.2255859375,0.02734375z M16.736328125,42.88671875q0.095703125-0.013671875,0.2529296875-0.177734375t0.341796875-0.4169921875t0.2119140625-0.2939453125q0.287109375-0.328125,0.642578125-0.779296875q-0.02734375-0.041015625-0.1708984375,0.0205078125t-0.3349609375,0.1845703125t-0.369140625,0.24609375t-0.3349609375,0.232421875t-0.1845703125,0.123046875q-0.19140625,0.109375-0.19140625,0.587890625q0,0.0546875,0.013671875,0.1640625t0.013671875,0.150390625q0.041015625-0.041015625,0.109375-0.041015625z M17.16015625,41.2734375l-0.08203125,0.0546875q0-0.02734375,0.08203125-0.0546875l-0.0546875,0q-0.02734375,0-0.123046875,0.013671875t-0.13671875,0.013671875l-0.0546875,0q-0.1640625,0-0.1640625,0.13671875l0,0.1640625q0.24609375-0.1640625,0.533203125-0.328125z M18.4453125,42.8046875l0.02734375,0l-0.02734375-0.02734375l-0.02734375,0q0.02734375,0,0.02734375,0.02734375q0.0546875-0.02734375,0.1640625-0.02734375q0.0546875,0,0.177734375,0.013671875t0.1640625,0.013671875q0.08203125,0.013671875,0.2119140625-0.0615234375t0.2939453125-0.1982421875t0.21875-0.150390625q0.287109375-0.205078125,0.8955078125-0.5947265625t0.8955078125-0.5810546875q0.1640625-0.123046875,0.7724609375-0.5673828125t0.9365234375-0.7041015625q0.369140625-0.287109375,0.396484375-0.3828125l0-0.451171875q-0.806640625,0.30078125-2.16015625,1.1484375q-1.708984375,1.025390625-3.896484375,2.59765625q0.095703125,0.013671875,0.232421875-0.0615234375t0.19140625-0.0751953125q0.013671875,0,0.041015625,0.013671875t0.041015625,0.013671875l0.0546875,0q0.041015625,0,0.109375-0.013671875t0.095703125-0.013671875q0.08203125,0,0.1640625,0.08203125z M20.373046875,42.859375q0.0546875,0,0.0888671875-0.041015625t0.0751953125-0.109375t0.068359375-0.095703125q-0.068359375,0.041015625-0.2119140625,0.123046875t-0.2119140625,0.123046875l0.13671875,0l0.0546875,0z M21.330078125,42.88671875l0.02734375-0.02734375l-0.02734375,0.02734375q0.0546875-0.0546875,0.19140625-0.0546875l0.109375,0q0.095703125,0,0.123046875-0.02734375q0.013671875-0.013671875,0.177734375-0.150390625t0.259765625-0.205078125q0.095703125-0.08203125,0.4580078125-0.3828125t0.5810546875-0.46484375q-0.396484375,0.21875-1.1689453125,0.669921875t-1.1552734375,0.68359375q0.02734375,0.02734375,0.08203125,0.02734375q0.041015625,0,0.150390625-0.0478515625t0.1640625-0.0478515625l0.02734375,0z M24.32421875,42.75q0.13671875-0.041015625,0.2529296875-0.287109375t0.21875-0.642578125t0.1162109375-0.4375q-1.61328125,0.90234375-2.5703125,1.4765625l0.0546875,0q0.0546875,0,0.177734375-0.0546875t0.177734375-0.0546875l0.369140625,0l0.1640625,0q0.0546875,0,0.13671875,0.041015625t0.123046875,0.041015625t0.1162109375-0.02734375t0.1298828125-0.02734375q0.08203125,0.013671875,0.2255859375-0.0205078125t0.1982421875-0.0341796875q0.08203125,0,0.109375,0.02734375z M26.361328125,42.927734375q0.02734375,0,0.109375-0.0205078125t0.123046875-0.0205078125l0.0546875,0q0.068359375-0.02734375,0.1435546875-0.0341796875t0.1025390625-0.041015625t0.095703125-0.1435546875q0.4921875-0.68359375,0.916015625-1.517578125l-0.0546875,0q-0.109375,0-0.1640625-0.02734375q-0.013671875,0.013671875-0.0546875,0.0341796875t-0.068359375,0.041015625t-0.0546875,0.0205078125q-0.13671875,0.109375-0.41015625,0.2734375q-0.13671875,0.095703125-0.423828125,0.2939453125t-0.423828125,0.2939453125q-0.833984375,0.57421875-1.23046875,0.779296875q0.13671875,0.068359375,0.232421875,0.068359375q0.08203125,0,0.232421875-0.0341796875t0.205078125-0.0341796875q0.109375,0.013671875,0.3349609375,0.0341796875t0.3349609375,0.0341796875z M29.02734375,42.77734375l-0.02734375,0l0.02734375,0l0.08203125,0q0.109375,0,0.314453125-0.02734375t0.30078125-0.02734375q0.24609375,0.02734375,0.642578125-0.2734375q0.21875-0.1640625,0.615234375-0.451171875t0.7314453125-0.5400390625t0.6220703125-0.4716796875q1.640625-1.162109375,3.240234375-2.4609375q-0.533203125,0.30078125-1.5791015625,0.95703125t-1.5791015625,0.970703125q-1.06640625,0.62890625-4.197265625,2.37890625l0.13671875,0q0.095703125,0,0.2939453125-0.02734375t0.2939453125-0.02734375l0.08203125,0z M32.52734375,42.859375l0.08203125,0l-0.08203125,0q0.232421875,0,0.642578125-0.41015625q-0.109375,0.109375-0.3349609375,0.259765625t-0.3076171875,0.150390625z"/><path fill="#147bc4" d=""/></svg>
